<svg width="49" height="45" viewBox="0 0 49 45" fill="none" xmlns="http://www.w3.org/2000/svg">
<path d="M0.296 44.064V43.936C2.64267 41.76 3.816 38.5173 3.816 34.208V0.543999H14.888V34.656C14.888 38.88 13.3093 42.016 10.152 44.064H0.296ZM19.316 36V0.543999H43.06C46.7293 6.00533 48.564 11.616 48.564 17.376C48.564 19.6373 48.3293 21.9413 47.86 24.288C47.3907 26.6347 46.7507 28.832 45.94 30.88C45.1293 32.928 44.1693 34.6347 43.06 36H19.316ZM30.388 33.952C32.7773 32.3307 34.5693 30.0693 35.764 27.168C37.0013 24.224 37.62 21.152 37.62 17.952C37.62 15.7333 37.3213 13.6 36.724 11.552C36.1267 9.504 35.2947 7.712 34.228 6.176C33.1613 4.64 31.8813 3.57333 30.388 2.976V33.952Z" fill="white"/>
</svg>
